<?xml version="1.0" encoding="UTF-8"?>
<svg version="1.1" viewBox="0 0 24 24" xmlns="http://www.w3.org/2000/svg">
    <path
        d="m10 16.4a6.4 6.4 0 0 1-6.4-6.4 6.4 6.4 0 0 1 6.4-6.4 6.4 6.4 0 0 1 6.4 6.4 6.4 6.4 0 0 1-6.4 6.4m0-14.4a8 8 0 0 0-8 8 8 8 0 0 0 8 8 8 8 0 0 0 8-8 8 8 0 0 0-8-8zm12 2a2 2 0 0 0-2-2c-0.31 0-0.61 0.07-0.88 0.21-0.3 0.15-0.56 0.37-0.76 0.64-0.64 0.9-0.42 2.15 0.49 2.79 0.33 0.23 0.74 0.36 1.15 0.36h0.24c1.73 4.43 0.42 9.46-3.24 12.5-0.32 0.25-0.65 0.5-1 0.72v1.78h1v-1.26c3.14-2.24 5-5.88 5-9.74 0-1.5-0.28-3-0.83-4.38 0.52-0.38 0.83-0.98 0.83-1.62m-7 14.66v3.34h-10v-3.34c3.09 1.79 6.91 1.79 10 0"
        stroke-width=".8" />
</svg>
