<?xml version="1.0" encoding="UTF-8"?>
<svg version="1.1" viewBox="0 0 24 24" xmlns="http://www.w3.org/2000/svg">
    <path
        d="m9.62 4.27c-1.82 0.156-3.69 0.746-5.09 1.94-0.709 0.982-1.03 2.19-1.43 3.32-0.664 2.23-1.12 4.54-1.1 6.87 0.901 1.69 2.78 2.54 4.52 3.1 0.495 0.0824 1.22 0.368 1.64 0.142 0.317-0.681 0.635-1.36 0.952-2.04 1.9 0.416 3.88 0.42 5.78 0 0.332 0.712 0.664 1.42 0.996 2.13 1.75-0.0561 3.42-0.8 4.82-1.81 0.517-0.428 1.06-0.929 1.3-1.57-0.0312-3.28-0.754-6.58-2.14-9.56-0.574-1.1-1.84-1.56-2.92-1.99-0.819-0.283-1.67-0.46-2.54-0.531-0.404 0.618-0.0899 2.24-1.12 1.9-1.04-0.121-2.09-0.0784-3.12 0.0672-0.154-0.661-0.35-1.32-0.541-1.96zm-1.14 1.96c0.27 0.654 0.624 1.27 0.931 1.91 1.74-0.341 3.54-0.333 5.27 0.0157 0.312-0.641 0.618-1.28 0.936-1.92 1.04 0.239 2.21 0.577 2.91 1.42 0.88 1.51 1.29 3.24 1.65 4.94 0.202 1.08 0.341 2.18 0.365 3.29-0.893 1.15-2.31 1.78-3.7 2.11-0.0409-0.262-0.502-0.709-0.24-0.839 0.663-0.261 1.61-0.58 1.93-1.13-0.231-0.445-0.462-0.889-0.693-1.33-1.85 1.24-4.18 1.51-6.36 1.47-1.73-0.073-3.51-0.492-4.96-1.47-0.37 0.474-0.74 0.948-1.11 1.42 0.619 0.506 1.51 0.839 2.14 1.13-0.212 0.25-0.221 0.921-0.665 0.692-1.29-0.37-2.61-0.954-3.44-2.05 0.117-2.78 0.67-5.6 1.95-8.09 0.339-0.686 1.16-0.916 1.81-1.21 0.414-0.15 0.846-0.264 1.28-0.342zm1.25 4.38c-1.17 0.0784-1.59 1.57-1.26 2.53 0.172 0.945 1.47 1.54 2.13 0.696 0.815-0.913 0.648-2.74-0.593-3.19l-0.136-0.0276zm4.55 0c-1.17 0.0784-1.59 1.57-1.26 2.53 0.172 0.945 1.47 1.54 2.13 0.696 0.815-0.913 0.648-2.74-0.593-3.19l-0.136-0.0276z"
        stroke-width=".728" />
</svg>
