<?xml version="1.0" encoding="UTF-8"?>
<svg version="1.1" viewBox="0 0 24 24" xmlns="http://www.w3.org/2000/svg">
    <path
        d="m13.961 12.289-2.75 3.541-1.9609-2.3594-2.75 3.5293h8.3047a6 6 0 0 1 1.4355-1.6758zm5.0391 3.7109v3h-3v2h3v3h2v-3h3v-2h-3v-3zm-14-13a2 2 0 0 0-2 2v14a2 2 0 0 0 2 2h9.0898c-0.06-0.33-0.089844-0.66-0.089844-1 0-0.33475 0.02897-0.67002 0.08594-1h-9.0859v-14h14v9.0918c0.32988-0.056145 0.66306-0.091797 1-0.091797 0.34 0 0.67 0.02984 1 0.08984v-9.0898c0-0.1361-0.01525-0.26824-0.04102-0.39648a2 2 0 0 0-0.0039-0.019531c-0.02626-0.12416-0.06327-0.24505-0.11133-0.35938a2 2 0 0 0-2e-3 -0.00586c-5.73e-4 -0.00135-0.0014-0.00256-2e-3 -0.00391-0.050367-0.11828-0.11224-0.23078-0.1835-0.33593-0.071035-0.10482-0.15116-0.20176-0.24023-0.29102a2 2 0 0 0-0.0039-0.00391c-0.0023-0.0023-0.0055-0.00357-0.0078-0.00586-0.086441-0.085286-0.17864-0.16393-0.27932-0.23242a2 2 0 0 0-0.0078-0.00586c-0.0031-0.00211-0.0066-0.00377-0.0098-0.00586-0.09648-0.064159-0.19946-0.11915-0.30664-0.16602a2 2 0 0 0-0.04492-0.017578c-0.1128-0.046086-0.22971-0.084388-0.35156-0.10938a2 2 0 0 0-2e-3 0c-0.12982-0.026503-0.26478-0.041014-0.40228-0.041014z" />
</svg>
